<svg width="24" height="24" viewBox="0 0 24 24" fill="none" xmlns="http://www.w3.org/2000/svg">
<path d="M11.9555 5.65891C11.9965 4.54291 12.3105 3.56291 12.8885 2.74391C13.47 1.92041 14.4315 1.33541 15.747 1.00391L15.7745 1.12541V1.33741C15.7745 1.81791 15.658 2.36941 15.428 2.97541C15.1865 3.56241 14.8095 4.11541 14.309 4.61391C13.841 5.05341 13.4075 5.34391 13.0245 5.47541C12.8985 5.51341 12.725 5.55041 12.5155 5.58391C12.3295 5.61291 12.1428 5.63791 11.9555 5.65891Z" fill="black"/>
<path d="M12.175 7.31451C10.689 7.31451 9.657 5.99951 8.1905 5.99951C6.7245 5.99951 3.704 7.34751 3.704 11.9995C3.704 16.6525 6.3865 19.6495 6.6865 19.9995C6.9865 20.35 7.68 21.2495 8.755 21.2495C9.83 21.2495 11.0065 20.395 12.175 20.395C13.3435 20.395 14.8145 21.25 15.775 21.25C16.735 21.25 17.13 20.8585 17.783 20.183C18.436 19.5075 19.683 17.448 20.118 16.211C19.4015 15.784 17.501 14.626 17.501 12C17.501 10.2497 18.1407 8.79551 19.42 7.63751C18.5807 6.54585 17.6073 6.00001 16.5 6.00001C14.8385 6.00001 13.6615 7.31451 12.175 7.31451Z" fill="black" stroke="black" stroke-width="2" stroke-linejoin="round"/>
</svg>
